<mxfile host="app.diagrams.net" modified="2020-10-20T11:20:11.662Z" agent="5.0 (Windows)" etag="5n9KNsrKMgjYwAvRB1DZ" version="13.8.0" type="github">
  <diagram id="Yevh-g8nTKUBOGGr0oUq" name="Page-1">
    <mxGraphModel dx="1303" dy="673" grid="1" gridSize="10" guides="1" tooltips="1" connect="1" arrows="1" fold="1" page="1" pageScale="1" pageWidth="827" pageHeight="1169" math="0" shadow="0">
      <root>
        <mxCell id="gkHT4bu3b0f0jtjOqA4o-0" />
        <mxCell id="gkHT4bu3b0f0jtjOqA4o-1" parent="gkHT4bu3b0f0jtjOqA4o-0" />
        <mxCell id="12xH_gXyC0JP7orOwCKg-13" style="edgeStyle=orthogonalEdgeStyle;rounded=0;orthogonalLoop=1;jettySize=auto;html=1;" parent="gkHT4bu3b0f0jtjOqA4o-1" source="12xH_gXyC0JP7orOwCKg-14" target="12xH_gXyC0JP7orOwCKg-29" edge="1">
          <mxGeometry relative="1" as="geometry">
            <Array as="points">
              <mxPoint x="571" y="580" />
              <mxPoint x="496" y="580" />
            </Array>
          </mxGeometry>
        </mxCell>
        <mxCell id="8inwFE-MQz8HEBYmpQ9X-59" style="edgeStyle=orthogonalEdgeStyle;rounded=0;orthogonalLoop=1;jettySize=auto;html=1;" parent="gkHT4bu3b0f0jtjOqA4o-1" source="12xH_gXyC0JP7orOwCKg-14" target="8inwFE-MQz8HEBYmpQ9X-58" edge="1">
          <mxGeometry relative="1" as="geometry">
            <Array as="points">
              <mxPoint x="571" y="580" />
              <mxPoint x="632" y="580" />
            </Array>
          </mxGeometry>
        </mxCell>
        <mxCell id="12xH_gXyC0JP7orOwCKg-14" value="Model" style="rounded=1;whiteSpace=wrap;html=1;absoluteArcSize=1;arcSize=14;strokeWidth=2;" parent="gkHT4bu3b0f0jtjOqA4o-1" vertex="1">
          <mxGeometry x="520.93" y="442.5" width="100" height="100" as="geometry" />
        </mxCell>
        <mxCell id="VNxaeYcz-5pTjhsVP7Z5-0" style="edgeStyle=orthogonalEdgeStyle;rounded=0;orthogonalLoop=1;jettySize=auto;html=1;entryX=0;entryY=0.5;entryDx=0;entryDy=0;" edge="1" parent="gkHT4bu3b0f0jtjOqA4o-1" source="12xH_gXyC0JP7orOwCKg-22" target="12xH_gXyC0JP7orOwCKg-14">
          <mxGeometry relative="1" as="geometry" />
        </mxCell>
        <mxCell id="12xH_gXyC0JP7orOwCKg-22" value="&lt;div&gt;Population &lt;br&gt;&lt;/div&gt;&lt;div&gt;data&lt;/div&gt;" style="shape=parallelogram;html=1;strokeWidth=2;perimeter=parallelogramPerimeter;whiteSpace=wrap;rounded=1;arcSize=12;size=0.23;" parent="gkHT4bu3b0f0jtjOqA4o-1" vertex="1">
          <mxGeometry x="339.99999999999994" y="462.5" width="100" height="60" as="geometry" />
        </mxCell>
        <mxCell id="12xH_gXyC0JP7orOwCKg-29" value="New buildings" style="shape=parallelogram;html=1;strokeWidth=2;perimeter=parallelogramPerimeter;whiteSpace=wrap;rounded=1;arcSize=12;size=0.23;" parent="gkHT4bu3b0f0jtjOqA4o-1" vertex="1">
          <mxGeometry x="440.93" y="620" width="109.07" height="60" as="geometry" />
        </mxCell>
        <mxCell id="12xH_gXyC0JP7orOwCKg-34" style="edgeStyle=orthogonalEdgeStyle;rounded=0;orthogonalLoop=1;jettySize=auto;html=1;" parent="gkHT4bu3b0f0jtjOqA4o-1" source="12xH_gXyC0JP7orOwCKg-31" target="12xH_gXyC0JP7orOwCKg-33" edge="1">
          <mxGeometry relative="1" as="geometry" />
        </mxCell>
        <mxCell id="12xH_gXyC0JP7orOwCKg-31" value="Road data" style="shape=parallelogram;html=1;strokeWidth=2;perimeter=parallelogramPerimeter;whiteSpace=wrap;rounded=1;arcSize=12;size=0.23;" parent="gkHT4bu3b0f0jtjOqA4o-1" vertex="1">
          <mxGeometry x="686.2600000000001" y="30" width="100" height="60" as="geometry" />
        </mxCell>
        <mxCell id="12xH_gXyC0JP7orOwCKg-35" style="edgeStyle=orthogonalEdgeStyle;rounded=0;orthogonalLoop=1;jettySize=auto;html=1;" parent="gkHT4bu3b0f0jtjOqA4o-1" source="12xH_gXyC0JP7orOwCKg-32" target="12xH_gXyC0JP7orOwCKg-33" edge="1">
          <mxGeometry relative="1" as="geometry" />
        </mxCell>
        <mxCell id="12xH_gXyC0JP7orOwCKg-32" value="&lt;div&gt;Railway &lt;br&gt;&lt;/div&gt;&lt;div&gt;stations&lt;/div&gt;" style="shape=parallelogram;html=1;strokeWidth=2;perimeter=parallelogramPerimeter;whiteSpace=wrap;rounded=1;arcSize=12;size=0.23;" parent="gkHT4bu3b0f0jtjOqA4o-1" vertex="1">
          <mxGeometry x="795.6" y="30" width="100" height="60" as="geometry" />
        </mxCell>
        <mxCell id="crPVwcIPL3rN5ODeDzdk-18" style="edgeStyle=orthogonalEdgeStyle;rounded=0;orthogonalLoop=1;jettySize=auto;html=1;" parent="gkHT4bu3b0f0jtjOqA4o-1" source="12xH_gXyC0JP7orOwCKg-33" target="crPVwcIPL3rN5ODeDzdk-15" edge="1">
          <mxGeometry relative="1" as="geometry" />
        </mxCell>
        <mxCell id="12xH_gXyC0JP7orOwCKg-33" value="Proximity mapper" style="rounded=1;whiteSpace=wrap;html=1;absoluteArcSize=1;arcSize=14;strokeWidth=2;" parent="gkHT4bu3b0f0jtjOqA4o-1" vertex="1">
          <mxGeometry x="746.2600000000001" y="160" width="100" height="60" as="geometry" />
        </mxCell>
        <mxCell id="VNxaeYcz-5pTjhsVP7Z5-6" style="edgeStyle=orthogonalEdgeStyle;rounded=0;orthogonalLoop=1;jettySize=auto;html=1;" edge="1" parent="gkHT4bu3b0f0jtjOqA4o-1" source="12xH_gXyC0JP7orOwCKg-57" target="12xH_gXyC0JP7orOwCKg-14">
          <mxGeometry relative="1" as="geometry" />
        </mxCell>
        <mxCell id="12xH_gXyC0JP7orOwCKg-57" value="Parameters (model)" style="shape=parallelogram;html=1;strokeWidth=2;perimeter=parallelogramPerimeter;whiteSpace=wrap;rounded=1;arcSize=12;size=0.23;" parent="gkHT4bu3b0f0jtjOqA4o-1" vertex="1">
          <mxGeometry x="686.26" y="462.5" width="100" height="60" as="geometry" />
        </mxCell>
        <mxCell id="VNxaeYcz-5pTjhsVP7Z5-1" style="edgeStyle=orthogonalEdgeStyle;rounded=0;orthogonalLoop=1;jettySize=auto;html=1;" edge="1" parent="gkHT4bu3b0f0jtjOqA4o-1" source="12xH_gXyC0JP7orOwCKg-63" target="12xH_gXyC0JP7orOwCKg-14">
          <mxGeometry relative="1" as="geometry" />
        </mxCell>
        <mxCell id="12xH_gXyC0JP7orOwCKg-63" value="Format convertor&amp;nbsp; (vector to raster)" style="rounded=1;whiteSpace=wrap;html=1;absoluteArcSize=1;arcSize=14;strokeWidth=2;" parent="gkHT4bu3b0f0jtjOqA4o-1" vertex="1">
          <mxGeometry x="520.9300000000001" y="320" width="100" height="60" as="geometry" />
        </mxCell>
        <mxCell id="VNxaeYcz-5pTjhsVP7Z5-3" style="edgeStyle=orthogonalEdgeStyle;rounded=0;orthogonalLoop=1;jettySize=auto;html=1;entryX=0.5;entryY=0;entryDx=0;entryDy=0;" edge="1" parent="gkHT4bu3b0f0jtjOqA4o-1" source="crPVwcIPL3rN5ODeDzdk-15" target="12xH_gXyC0JP7orOwCKg-63">
          <mxGeometry relative="1" as="geometry" />
        </mxCell>
        <mxCell id="crPVwcIPL3rN5ODeDzdk-15" value="Attractor layer" style="swimlane;" parent="gkHT4bu3b0f0jtjOqA4o-1" vertex="1">
          <mxGeometry x="460.93" y="120" width="220" height="140" as="geometry" />
        </mxCell>
        <mxCell id="crPVwcIPL3rN5ODeDzdk-16" value="&lt;div&gt;Station &lt;br&gt;&lt;/div&gt;&lt;div&gt;proximity&lt;/div&gt;" style="shape=parallelogram;html=1;strokeWidth=2;perimeter=parallelogramPerimeter;whiteSpace=wrap;rounded=1;arcSize=12;size=0.23;" parent="crPVwcIPL3rN5ODeDzdk-15" vertex="1">
          <mxGeometry x="110" y="49.21000000000001" width="100" height="60" as="geometry" />
        </mxCell>
        <mxCell id="crPVwcIPL3rN5ODeDzdk-17" value="&lt;div&gt;Road &lt;br&gt;&lt;/div&gt;&lt;div&gt;proximity&lt;/div&gt;" style="shape=parallelogram;html=1;strokeWidth=2;perimeter=parallelogramPerimeter;whiteSpace=wrap;rounded=1;arcSize=12;size=0.23;" parent="crPVwcIPL3rN5ODeDzdk-15" vertex="1">
          <mxGeometry x="10" y="49.21000000000001" width="100" height="60" as="geometry" />
        </mxCell>
        <mxCell id="8inwFE-MQz8HEBYmpQ9X-0" value="" style="shape=table;html=1;whiteSpace=wrap;startSize=0;container=1;collapsible=0;childLayout=tableLayout;spacingTop=0;rowLines=0;" parent="gkHT4bu3b0f0jtjOqA4o-1" vertex="1">
          <mxGeometry x="1110" y="270" width="513" height="190" as="geometry" />
        </mxCell>
        <mxCell id="8inwFE-MQz8HEBYmpQ9X-1" value="" style="shape=partialRectangle;html=1;whiteSpace=wrap;collapsible=0;dropTarget=0;pointerEvents=0;fillColor=none;top=0;left=0;bottom=0;right=0;points=[[0,0.5],[1,0.5]];portConstraint=eastwest;perimeterSpacing=2;strokeWidth=5;" parent="8inwFE-MQz8HEBYmpQ9X-0" vertex="1">
          <mxGeometry width="513" height="30" as="geometry" />
        </mxCell>
        <mxCell id="8inwFE-MQz8HEBYmpQ9X-2" value="&lt;b&gt;Dataset&lt;/b&gt;" style="shape=partialRectangle;html=1;whiteSpace=wrap;connectable=0;fillColor=none;top=0;left=0;bottom=1;right=0;overflow=hidden;" parent="8inwFE-MQz8HEBYmpQ9X-1" vertex="1">
          <mxGeometry width="257" height="30" as="geometry" />
        </mxCell>
        <mxCell id="8inwFE-MQz8HEBYmpQ9X-3" value="&lt;b&gt;Format&lt;/b&gt;" style="shape=partialRectangle;html=1;whiteSpace=wrap;connectable=0;fillColor=none;top=0;left=0;bottom=1;right=0;overflow=hidden;sketch=0;" parent="8inwFE-MQz8HEBYmpQ9X-1" vertex="1">
          <mxGeometry x="257" width="256" height="30" as="geometry" />
        </mxCell>
        <mxCell id="8inwFE-MQz8HEBYmpQ9X-4" style="shape=partialRectangle;html=1;whiteSpace=wrap;collapsible=0;dropTarget=0;pointerEvents=0;fillColor=none;top=0;left=0;bottom=0;right=0;points=[[0,0.5],[1,0.5]];portConstraint=eastwest;strokeColor=none;" parent="8inwFE-MQz8HEBYmpQ9X-0" vertex="1">
          <mxGeometry y="30" width="513" height="20" as="geometry" />
        </mxCell>
        <mxCell id="8inwFE-MQz8HEBYmpQ9X-5" value="Parameters (UDM)" style="shape=partialRectangle;html=1;whiteSpace=wrap;connectable=0;fillColor=none;top=0;left=0;bottom=0;right=0;overflow=hidden;strokeColor=none;" parent="8inwFE-MQz8HEBYmpQ9X-4" vertex="1">
          <mxGeometry width="257" height="20" as="geometry" />
        </mxCell>
        <mxCell id="8inwFE-MQz8HEBYmpQ9X-6" value=".csv" style="shape=partialRectangle;html=1;whiteSpace=wrap;connectable=0;fillColor=none;top=0;left=0;bottom=0;right=0;overflow=hidden;strokeColor=none;" parent="8inwFE-MQz8HEBYmpQ9X-4" vertex="1">
          <mxGeometry x="257" width="256" height="20" as="geometry" />
        </mxCell>
        <mxCell id="8inwFE-MQz8HEBYmpQ9X-7" value="" style="shape=partialRectangle;html=1;whiteSpace=wrap;collapsible=0;dropTarget=0;pointerEvents=0;fillColor=none;top=0;left=0;bottom=0;right=0;points=[[0,0.5],[1,0.5]];portConstraint=eastwest;strokeColor=none;" parent="8inwFE-MQz8HEBYmpQ9X-0" vertex="1">
          <mxGeometry y="50" width="513" height="20" as="geometry" />
        </mxCell>
        <mxCell id="8inwFE-MQz8HEBYmpQ9X-8" value="Road data" style="shape=partialRectangle;html=1;whiteSpace=wrap;connectable=0;fillColor=none;top=0;left=0;bottom=0;right=0;overflow=hidden;strokeColor=none;" parent="8inwFE-MQz8HEBYmpQ9X-7" vertex="1">
          <mxGeometry width="257" height="20" as="geometry" />
        </mxCell>
        <mxCell id="8inwFE-MQz8HEBYmpQ9X-9" value=".shp (Shapefile)" style="shape=partialRectangle;html=1;whiteSpace=wrap;connectable=0;fillColor=none;top=0;left=0;bottom=0;right=0;overflow=hidden;strokeColor=none;" parent="8inwFE-MQz8HEBYmpQ9X-7" vertex="1">
          <mxGeometry x="257" width="256" height="20" as="geometry" />
        </mxCell>
        <mxCell id="8inwFE-MQz8HEBYmpQ9X-10" value="" style="shape=partialRectangle;html=1;whiteSpace=wrap;collapsible=0;dropTarget=0;pointerEvents=0;fillColor=none;top=0;left=0;bottom=0;right=0;points=[[0,0.5],[1,0.5]];portConstraint=eastwest;strokeColor=none;" parent="8inwFE-MQz8HEBYmpQ9X-0" vertex="1">
          <mxGeometry y="70" width="513" height="20" as="geometry" />
        </mxCell>
        <mxCell id="8inwFE-MQz8HEBYmpQ9X-11" value="Railway stations" style="shape=partialRectangle;html=1;whiteSpace=wrap;connectable=0;fillColor=none;top=0;left=0;bottom=0;right=0;overflow=hidden;strokeColor=none;" parent="8inwFE-MQz8HEBYmpQ9X-10" vertex="1">
          <mxGeometry width="257" height="20" as="geometry" />
        </mxCell>
        <mxCell id="8inwFE-MQz8HEBYmpQ9X-12" value=".shp" style="shape=partialRectangle;html=1;whiteSpace=wrap;connectable=0;fillColor=none;top=0;left=0;bottom=0;right=0;overflow=hidden;strokeColor=none;" parent="8inwFE-MQz8HEBYmpQ9X-10" vertex="1">
          <mxGeometry x="257" width="256" height="20" as="geometry" />
        </mxCell>
        <mxCell id="8inwFE-MQz8HEBYmpQ9X-16" style="shape=partialRectangle;html=1;whiteSpace=wrap;collapsible=0;dropTarget=0;pointerEvents=0;fillColor=none;top=0;left=0;bottom=0;right=0;points=[[0,0.5],[1,0.5]];portConstraint=eastwest;strokeColor=none;" parent="8inwFE-MQz8HEBYmpQ9X-0" vertex="1">
          <mxGeometry y="90" width="513" height="20" as="geometry" />
        </mxCell>
        <mxCell id="8inwFE-MQz8HEBYmpQ9X-17" value="Population data" style="shape=partialRectangle;html=1;whiteSpace=wrap;connectable=0;fillColor=none;top=0;left=0;bottom=0;right=0;overflow=hidden;strokeColor=none;" parent="8inwFE-MQz8HEBYmpQ9X-16" vertex="1">
          <mxGeometry width="257" height="20" as="geometry" />
        </mxCell>
        <mxCell id="8inwFE-MQz8HEBYmpQ9X-18" value=".shp&lt;sup&gt;+&lt;/sup&gt;" style="shape=partialRectangle;html=1;whiteSpace=wrap;connectable=0;fillColor=none;top=0;left=0;bottom=0;right=0;overflow=hidden;strokeColor=none;" parent="8inwFE-MQz8HEBYmpQ9X-16" vertex="1">
          <mxGeometry x="257" width="256" height="20" as="geometry" />
        </mxCell>
        <mxCell id="8inwFE-MQz8HEBYmpQ9X-31" style="shape=partialRectangle;html=1;whiteSpace=wrap;collapsible=0;dropTarget=0;pointerEvents=0;fillColor=none;top=0;left=0;bottom=0;right=0;points=[[0,0.5],[1,0.5]];portConstraint=eastwest;strokeColor=none;" parent="8inwFE-MQz8HEBYmpQ9X-0" vertex="1">
          <mxGeometry y="110" width="513" height="20" as="geometry" />
        </mxCell>
        <mxCell id="8inwFE-MQz8HEBYmpQ9X-32" value="" style="shape=partialRectangle;html=1;whiteSpace=wrap;connectable=0;fillColor=none;top=0;left=0;bottom=0;right=0;overflow=hidden;strokeColor=none;" parent="8inwFE-MQz8HEBYmpQ9X-31" vertex="1">
          <mxGeometry width="257" height="20" as="geometry" />
        </mxCell>
        <mxCell id="8inwFE-MQz8HEBYmpQ9X-33" value="" style="shape=partialRectangle;html=1;whiteSpace=wrap;connectable=0;fillColor=none;top=0;left=0;bottom=0;right=0;overflow=hidden;strokeColor=none;" parent="8inwFE-MQz8HEBYmpQ9X-31" vertex="1">
          <mxGeometry x="257" width="256" height="20" as="geometry" />
        </mxCell>
        <mxCell id="8inwFE-MQz8HEBYmpQ9X-52" style="shape=partialRectangle;html=1;whiteSpace=wrap;collapsible=0;dropTarget=0;pointerEvents=0;fillColor=none;top=0;left=0;bottom=0;right=0;points=[[0,0.5],[1,0.5]];portConstraint=eastwest;strokeColor=none;" parent="8inwFE-MQz8HEBYmpQ9X-0" vertex="1">
          <mxGeometry y="130" width="513" height="20" as="geometry" />
        </mxCell>
        <mxCell id="8inwFE-MQz8HEBYmpQ9X-53" style="shape=partialRectangle;html=1;whiteSpace=wrap;connectable=0;fillColor=none;top=0;left=0;bottom=0;right=0;overflow=hidden;strokeColor=none;" parent="8inwFE-MQz8HEBYmpQ9X-52" vertex="1">
          <mxGeometry width="257" height="20" as="geometry" />
        </mxCell>
        <mxCell id="8inwFE-MQz8HEBYmpQ9X-54" style="shape=partialRectangle;html=1;whiteSpace=wrap;connectable=0;fillColor=none;top=0;left=0;bottom=0;right=0;overflow=hidden;strokeColor=none;" parent="8inwFE-MQz8HEBYmpQ9X-52" vertex="1">
          <mxGeometry x="257" width="256" height="20" as="geometry" />
        </mxCell>
        <mxCell id="8inwFE-MQz8HEBYmpQ9X-49" style="shape=partialRectangle;html=1;whiteSpace=wrap;collapsible=0;dropTarget=0;pointerEvents=0;fillColor=none;top=0;left=0;bottom=0;right=0;points=[[0,0.5],[1,0.5]];portConstraint=eastwest;strokeColor=none;" parent="8inwFE-MQz8HEBYmpQ9X-0" vertex="1">
          <mxGeometry y="150" width="513" height="20" as="geometry" />
        </mxCell>
        <mxCell id="8inwFE-MQz8HEBYmpQ9X-50" value="Result metadata" style="shape=partialRectangle;html=1;whiteSpace=wrap;connectable=0;fillColor=none;top=0;left=0;bottom=0;right=0;overflow=hidden;strokeColor=none;" parent="8inwFE-MQz8HEBYmpQ9X-49" vertex="1">
          <mxGeometry width="257" height="20" as="geometry" />
        </mxCell>
        <mxCell id="8inwFE-MQz8HEBYmpQ9X-51" value=".csv" style="shape=partialRectangle;html=1;whiteSpace=wrap;connectable=0;fillColor=none;top=0;left=0;bottom=0;right=0;overflow=hidden;strokeColor=none;" parent="8inwFE-MQz8HEBYmpQ9X-49" vertex="1">
          <mxGeometry x="257" width="256" height="20" as="geometry" />
        </mxCell>
        <mxCell id="8inwFE-MQz8HEBYmpQ9X-55" style="shape=partialRectangle;html=1;whiteSpace=wrap;collapsible=0;dropTarget=0;pointerEvents=0;fillColor=none;top=0;left=0;bottom=0;right=0;points=[[0,0.5],[1,0.5]];portConstraint=eastwest;strokeColor=none;" parent="8inwFE-MQz8HEBYmpQ9X-0" vertex="1">
          <mxGeometry y="170" width="513" height="20" as="geometry" />
        </mxCell>
        <mxCell id="8inwFE-MQz8HEBYmpQ9X-56" value="New buildings" style="shape=partialRectangle;html=1;whiteSpace=wrap;connectable=0;fillColor=none;top=0;left=0;bottom=0;right=0;overflow=hidden;strokeColor=none;" parent="8inwFE-MQz8HEBYmpQ9X-55" vertex="1">
          <mxGeometry width="257" height="20" as="geometry" />
        </mxCell>
        <mxCell id="8inwFE-MQz8HEBYmpQ9X-57" value=".geojson" style="shape=partialRectangle;html=1;whiteSpace=wrap;connectable=0;fillColor=none;top=0;left=0;bottom=0;right=0;overflow=hidden;strokeColor=none;" parent="8inwFE-MQz8HEBYmpQ9X-55" vertex="1">
          <mxGeometry x="257" width="256" height="20" as="geometry" />
        </mxCell>
        <mxCell id="8inwFE-MQz8HEBYmpQ9X-48" value="Notes:&lt;br&gt;*Optional datasets&lt;br&gt;+Data converted to .asci grid format from .shp, so potential to accept raster datasets if using the same griding scale. E.g. 100x100m" style="text;html=1;strokeColor=none;fillColor=none;align=left;verticalAlign=top;whiteSpace=wrap;rounded=0;" parent="gkHT4bu3b0f0jtjOqA4o-1" vertex="1">
          <mxGeometry x="1110" y="500" width="460" height="100" as="geometry" />
        </mxCell>
        <mxCell id="8inwFE-MQz8HEBYmpQ9X-58" value="&lt;div&gt;Result &lt;br&gt;&lt;/div&gt;&lt;div&gt;metadata&lt;/div&gt;" style="shape=parallelogram;html=1;strokeWidth=2;perimeter=parallelogramPerimeter;whiteSpace=wrap;rounded=1;arcSize=12;size=0.23;" parent="gkHT4bu3b0f0jtjOqA4o-1" vertex="1">
          <mxGeometry x="577.1899999999999" y="620" width="109.07" height="60" as="geometry" />
        </mxCell>
        <mxCell id="8inwFE-MQz8HEBYmpQ9X-64" style="edgeStyle=orthogonalEdgeStyle;rounded=0;orthogonalLoop=1;jettySize=auto;html=1;" parent="gkHT4bu3b0f0jtjOqA4o-1" source="8inwFE-MQz8HEBYmpQ9X-63" target="12xH_gXyC0JP7orOwCKg-63" edge="1">
          <mxGeometry relative="1" as="geometry" />
        </mxCell>
        <mxCell id="8inwFE-MQz8HEBYmpQ9X-63" value="Parameters" style="shape=parallelogram;html=1;strokeWidth=2;perimeter=parallelogramPerimeter;whiteSpace=wrap;rounded=1;arcSize=12;size=0.23;" parent="gkHT4bu3b0f0jtjOqA4o-1" vertex="1">
          <mxGeometry x="340.93" y="320" width="100" height="60" as="geometry" />
        </mxCell>
        <mxCell id="VNxaeYcz-5pTjhsVP7Z5-8" style="edgeStyle=orthogonalEdgeStyle;rounded=0;orthogonalLoop=1;jettySize=auto;html=1;" edge="1" parent="gkHT4bu3b0f0jtjOqA4o-1" source="8inwFE-MQz8HEBYmpQ9X-65" target="12xH_gXyC0JP7orOwCKg-33">
          <mxGeometry relative="1" as="geometry" />
        </mxCell>
        <mxCell id="8inwFE-MQz8HEBYmpQ9X-65" value="Parameters" style="shape=parallelogram;html=1;strokeWidth=2;perimeter=parallelogramPerimeter;whiteSpace=wrap;rounded=1;arcSize=12;size=0.23;" parent="gkHT4bu3b0f0jtjOqA4o-1" vertex="1">
          <mxGeometry x="940" y="160" width="100" height="60" as="geometry" />
        </mxCell>
        <mxCell id="VNxaeYcz-5pTjhsVP7Z5-5" style="edgeStyle=orthogonalEdgeStyle;rounded=0;orthogonalLoop=1;jettySize=auto;html=1;entryX=1;entryY=0.5;entryDx=0;entryDy=0;" edge="1" parent="gkHT4bu3b0f0jtjOqA4o-1" source="12xH_gXyC0JP7orOwCKg-43" target="12xH_gXyC0JP7orOwCKg-57">
          <mxGeometry relative="1" as="geometry">
            <Array as="points">
              <mxPoint x="895" y="493" />
            </Array>
          </mxGeometry>
        </mxCell>
        <mxCell id="12xH_gXyC0JP7orOwCKg-43" value="" style="shape=table;html=1;whiteSpace=wrap;startSize=0;container=1;collapsible=0;childLayout=tableLayout;" parent="gkHT4bu3b0f0jtjOqA4o-1" vertex="1">
          <mxGeometry x="700" y="302.5" width="390" height="140" as="geometry" />
        </mxCell>
        <mxCell id="12xH_gXyC0JP7orOwCKg-44" value="" style="shape=partialRectangle;html=1;whiteSpace=wrap;collapsible=0;dropTarget=0;pointerEvents=0;fillColor=none;top=0;left=0;bottom=0;right=0;points=[[0,0.5],[1,0.5]];portConstraint=eastwest;" parent="12xH_gXyC0JP7orOwCKg-43" vertex="1">
          <mxGeometry width="390" height="35" as="geometry" />
        </mxCell>
        <mxCell id="12xH_gXyC0JP7orOwCKg-45" value="Parameter" style="shape=partialRectangle;html=1;whiteSpace=wrap;connectable=0;overflow=hidden;fillColor=none;top=0;left=0;bottom=0;right=0;" parent="12xH_gXyC0JP7orOwCKg-44" vertex="1">
          <mxGeometry width="140" height="35" as="geometry" />
        </mxCell>
        <mxCell id="12xH_gXyC0JP7orOwCKg-46" value="Description" style="shape=partialRectangle;html=1;whiteSpace=wrap;connectable=0;overflow=hidden;fillColor=none;top=0;left=0;bottom=0;right=0;" parent="12xH_gXyC0JP7orOwCKg-44" vertex="1">
          <mxGeometry x="140" width="250" height="35" as="geometry" />
        </mxCell>
        <mxCell id="12xH_gXyC0JP7orOwCKg-47" value="" style="shape=partialRectangle;html=1;whiteSpace=wrap;collapsible=0;dropTarget=0;pointerEvents=0;fillColor=none;top=0;left=0;bottom=0;right=0;points=[[0,0.5],[1,0.5]];portConstraint=eastwest;" parent="12xH_gXyC0JP7orOwCKg-43" vertex="1">
          <mxGeometry y="35" width="390" height="35" as="geometry" />
        </mxCell>
        <mxCell id="12xH_gXyC0JP7orOwCKg-48" value="Example parameter 1" style="shape=partialRectangle;html=1;whiteSpace=wrap;connectable=0;overflow=hidden;fillColor=none;top=0;left=0;bottom=0;right=0;" parent="12xH_gXyC0JP7orOwCKg-47" vertex="1">
          <mxGeometry width="140" height="35" as="geometry" />
        </mxCell>
        <mxCell id="12xH_gXyC0JP7orOwCKg-49" value="A description for the parameter" style="shape=partialRectangle;html=1;whiteSpace=wrap;connectable=0;overflow=hidden;fillColor=none;top=0;left=0;bottom=0;right=0;" parent="12xH_gXyC0JP7orOwCKg-47" vertex="1">
          <mxGeometry x="140" width="250" height="35" as="geometry" />
        </mxCell>
        <mxCell id="12xH_gXyC0JP7orOwCKg-50" value="" style="shape=partialRectangle;html=1;whiteSpace=wrap;collapsible=0;dropTarget=0;pointerEvents=0;fillColor=none;top=0;left=0;bottom=0;right=0;points=[[0,0.5],[1,0.5]];portConstraint=eastwest;" parent="12xH_gXyC0JP7orOwCKg-43" vertex="1">
          <mxGeometry y="70" width="390" height="35" as="geometry" />
        </mxCell>
        <mxCell id="12xH_gXyC0JP7orOwCKg-51" value="" style="shape=partialRectangle;html=1;whiteSpace=wrap;connectable=0;overflow=hidden;fillColor=none;top=0;left=0;bottom=0;right=0;" parent="12xH_gXyC0JP7orOwCKg-50" vertex="1">
          <mxGeometry width="140" height="35" as="geometry" />
        </mxCell>
        <mxCell id="12xH_gXyC0JP7orOwCKg-52" value="" style="shape=partialRectangle;html=1;whiteSpace=wrap;connectable=0;overflow=hidden;fillColor=none;top=0;left=0;bottom=0;right=0;" parent="12xH_gXyC0JP7orOwCKg-50" vertex="1">
          <mxGeometry x="140" width="250" height="35" as="geometry" />
        </mxCell>
        <mxCell id="12xH_gXyC0JP7orOwCKg-53" value="" style="shape=partialRectangle;html=1;whiteSpace=wrap;collapsible=0;dropTarget=0;pointerEvents=0;fillColor=none;top=0;left=0;bottom=0;right=0;points=[[0,0.5],[1,0.5]];portConstraint=eastwest;" parent="12xH_gXyC0JP7orOwCKg-43" vertex="1">
          <mxGeometry y="105" width="390" height="35" as="geometry" />
        </mxCell>
        <mxCell id="12xH_gXyC0JP7orOwCKg-54" value="" style="shape=partialRectangle;html=1;whiteSpace=wrap;connectable=0;overflow=hidden;fillColor=none;top=0;left=0;bottom=0;right=0;" parent="12xH_gXyC0JP7orOwCKg-53" vertex="1">
          <mxGeometry width="140" height="35" as="geometry" />
        </mxCell>
        <mxCell id="12xH_gXyC0JP7orOwCKg-55" value="" style="shape=partialRectangle;html=1;whiteSpace=wrap;connectable=0;overflow=hidden;fillColor=none;top=0;left=0;bottom=0;right=0;" parent="12xH_gXyC0JP7orOwCKg-53" vertex="1">
          <mxGeometry x="140" width="250" height="35" as="geometry" />
        </mxCell>
        <mxCell id="12xH_gXyC0JP7orOwCKg-56" style="edgeStyle=orthogonalEdgeStyle;rounded=0;orthogonalLoop=1;jettySize=auto;html=1;exitX=1;exitY=0.5;exitDx=0;exitDy=0;" parent="12xH_gXyC0JP7orOwCKg-43" source="12xH_gXyC0JP7orOwCKg-47" target="12xH_gXyC0JP7orOwCKg-47" edge="1">
          <mxGeometry relative="1" as="geometry" />
        </mxCell>
      </root>
    </mxGraphModel>
  </diagram>
</mxfile>
